<svg width="70" height="70" viewBox="0 0 70 70" fill="none" xmlns="http://www.w3.org/2000/svg">
<path fill-rule="evenodd" clip-rule="evenodd" d="M61.25 0H8.75C3.91751 0 0 3.91751 0 8.75V61.25C0 66.0825 3.91751 70 8.75 70H61.25C66.0825 70 70 66.0825 70 61.25V8.75C70 3.91751 66.0825 0 61.25 0ZM4.375 16.875C4.375 14.8039 6.33375 13.125 8.75 13.125H61.25C63.6662 13.125 65.625 14.8039 65.625 16.875V61.875C65.625 63.9461 63.6662 65.625 61.25 65.625H8.75C6.33375 65.625 4.375 63.9461 4.375 61.875V16.875Z" fill="#B98473"/>
<path fill-rule="evenodd" clip-rule="evenodd" d="M28.4375 30.625C30.8537 30.625 32.8125 28.6662 32.8125 26.25C32.8125 23.8338 30.8537 21.875 28.4375 21.875C26.0213 21.875 24.0625 23.8338 24.0625 26.25C24.0625 28.6662 26.0213 30.625 28.4375 30.625Z" fill="#B98473"/>
<path fill-rule="evenodd" clip-rule="evenodd" d="M41.5625 30.625C43.9787 30.625 45.9375 28.6662 45.9375 26.25C45.9375 23.8338 43.9787 21.875 41.5625 21.875C39.1463 21.875 37.1875 23.8338 37.1875 26.25C37.1875 28.6662 39.1463 30.625 41.5625 30.625Z" fill="#B98473"/>
<path fill-rule="evenodd" clip-rule="evenodd" d="M54.6875 30.625C57.1037 30.625 59.0625 28.6662 59.0625 26.25C59.0625 23.8338 57.1037 21.875 54.6875 21.875C52.2713 21.875 50.3125 23.8338 50.3125 26.25C50.3125 28.6662 52.2713 30.625 54.6875 30.625Z" fill="#B98473"/>
<path fill-rule="evenodd" clip-rule="evenodd" d="M15.3125 43.75C17.7287 43.75 19.6875 41.7912 19.6875 39.375C19.6875 36.9588 17.7287 35 15.3125 35C12.8963 35 10.9375 36.9588 10.9375 39.375C10.9375 41.7912 12.8963 43.75 15.3125 43.75Z" fill="#B98473"/>
<path fill-rule="evenodd" clip-rule="evenodd" d="M28.4375 43.75C30.8537 43.75 32.8125 41.7912 32.8125 39.375C32.8125 36.9588 30.8537 35 28.4375 35C26.0213 35 24.0625 36.9588 24.0625 39.375C24.0625 41.7912 26.0213 43.75 28.4375 43.75Z" fill="#B98473"/>
<path fill-rule="evenodd" clip-rule="evenodd" d="M41.5625 43.75C43.9787 43.75 45.9375 41.7912 45.9375 39.375C45.9375 36.9588 43.9787 35 41.5625 35C39.1463 35 37.1875 36.9588 37.1875 39.375C37.1875 41.7912 39.1463 43.75 41.5625 43.75Z" fill="#B98473"/>
<path fill-rule="evenodd" clip-rule="evenodd" d="M54.6875 43.75C57.1037 43.75 59.0625 41.7912 59.0625 39.375C59.0625 36.9588 57.1037 35 54.6875 35C52.2713 35 50.3125 36.9588 50.3125 39.375C50.3125 41.7912 52.2713 43.75 54.6875 43.75Z" fill="#B98473"/>
<path fill-rule="evenodd" clip-rule="evenodd" d="M15.3125 56.875C17.7287 56.875 19.6875 54.9162 19.6875 52.5C19.6875 50.0838 17.7287 48.125 15.3125 48.125C12.8963 48.125 10.9375 50.0838 10.9375 52.5C10.9375 54.9162 12.8963 56.875 15.3125 56.875Z" fill="#B98473"/>
<path fill-rule="evenodd" clip-rule="evenodd" d="M28.4375 56.875C30.8537 56.875 32.8125 54.9162 32.8125 52.5C32.8125 50.0838 30.8537 48.125 28.4375 48.125C26.0213 48.125 24.0625 50.0838 24.0625 52.5C24.0625 54.9162 26.0213 56.875 28.4375 56.875Z" fill="#B98473"/>
<path fill-rule="evenodd" clip-rule="evenodd" d="M41.5625 56.875C43.9787 56.875 45.9375 54.9162 45.9375 52.5C45.9375 50.0838 43.9787 48.125 41.5625 48.125C39.1463 48.125 37.1875 50.0838 37.1875 52.5C37.1875 54.9162 39.1463 56.875 41.5625 56.875Z" fill="#B98473"/>
</svg>
