<svg width="70" height="70" viewBox="0 0 70 70" fill="none" xmlns="http://www.w3.org/2000/svg">
<path fill-rule="evenodd" clip-rule="evenodd" d="M36.5468 7.2032C37.4011 8.05748 37.4011 9.44252 36.5468 10.2968L11.8436 35L36.5468 59.7032C37.4011 60.5575 37.4011 61.9425 36.5468 62.7968C35.6925 63.6511 34.3075 63.6511 33.4532 62.7968L7.2032 36.5468C6.34893 35.6925 6.34893 34.3075 7.2032 33.4532L33.4532 7.2032C34.3075 6.34893 35.6925 6.34893 36.5468 7.2032Z" fill="black"/>
<path fill-rule="evenodd" clip-rule="evenodd" d="M54.0468 7.2032C54.9011 8.05748 54.9011 9.44252 54.0468 10.2968L29.3436 35L54.0468 59.7032C54.9011 60.5575 54.9011 61.9425 54.0468 62.7968C53.1925 63.6511 51.8075 63.6511 50.9532 62.7968L24.7032 36.5468C23.8489 35.6925 23.8489 34.3075 24.7032 33.4532L50.9532 7.2032C51.8075 6.34893 53.1925 6.34893 54.0468 7.2032Z" fill="black"/>
</svg>
