<svg width="70" height="70" viewBox="0 0 70 70" fill="none" xmlns="http://www.w3.org/2000/svg">
<path fill-rule="evenodd" clip-rule="evenodd" d="M15.9532 7.2032C16.8075 6.34893 18.1925 6.34893 19.0468 7.2032L45.2968 33.4532C46.1511 34.3075 46.1511 35.6925 45.2968 36.5468L19.0468 62.7968C18.1925 63.6511 16.8075 63.6511 15.9532 62.7968C15.0989 61.9425 15.0989 60.5575 15.9532 59.7032L40.6564 35L15.9532 10.2968C15.0989 9.44252 15.0989 8.05748 15.9532 7.2032Z" fill="black"/>
<path fill-rule="evenodd" clip-rule="evenodd" d="M33.4532 7.2032C34.3075 6.34893 35.6925 6.34893 36.5468 7.2032L62.7968 33.4532C63.6511 34.3075 63.6511 35.6925 62.7968 36.5468L36.5468 62.7968C35.6925 63.6511 34.3075 63.6511 33.4532 62.7968C32.5989 61.9425 32.5989 60.5575 33.4532 59.7032L58.1564 35L33.4532 10.2968C32.5989 9.44252 32.5989 8.05748 33.4532 7.2032Z" fill="black"/>
</svg>
