<svg width="52" height="52" viewBox="0 0 52 52" fill="none" xmlns="http://www.w3.org/2000/svg">
<path fill-rule="evenodd" clip-rule="evenodd" d="M5.35095 21.601C5.98555 20.9663 7.01445 20.9663 7.64905 21.601L26 39.9519L44.351 21.601C44.9856 20.9663 46.0144 20.9663 46.649 21.601C47.2836 22.2356 47.2836 23.2644 46.649 23.899L27.149 43.399C26.5144 44.0337 25.4856 44.0337 24.851 43.399L5.35095 23.899C4.71635 23.2644 4.71635 22.2356 5.35095 21.601Z" fill="#EC410B"/>
<path fill-rule="evenodd" clip-rule="evenodd" d="M5.35095 8.60095C5.98555 7.96635 7.01445 7.96635 7.64905 8.60095L26 26.9519L44.351 8.60095C44.9856 7.96635 46.0144 7.96635 46.649 8.60095C47.2836 9.23555 47.2836 10.2644 46.649 10.899L27.149 30.399C26.5144 31.0337 25.4856 31.0337 24.851 30.399L5.35095 10.899C4.71635 10.2644 4.71635 9.23555 5.35095 8.60095Z" fill="#EC410B"/>
</svg>
