<svg width="70" height="70" viewBox="0 0 70 70" fill="none" xmlns="http://www.w3.org/2000/svg">
<path fill-rule="evenodd" clip-rule="evenodd" d="M35 12.0227L31.8642 8.79958C24.4952 1.22529 10.9994 3.83992 6.12656 13.3562C3.83484 17.8318 3.31953 24.292 7.50002 32.5394C11.5263 40.4824 19.8961 49.9907 35 60.3513C50.1039 49.9907 58.4737 40.4824 62.5 32.5394C66.6805 24.292 66.1652 17.8318 63.8734 13.3562C59.0006 3.83992 45.5048 1.22529 38.1358 8.79958L35 12.0227ZM35 65.625C-32.0824 21.2993 14.3446 -13.3038 34.2314 5.00099C34.4923 5.24111 34.7486 5.49034 35 5.74877C35.2514 5.49035 35.5077 5.24114 35.7686 5.00102C55.6554 -13.3038 102.082 21.2993 35 65.625Z" fill="#B98473"/>
</svg>
