<svg width="70" height="70" viewBox="0 0 70 70" fill="none" xmlns="http://www.w3.org/2000/svg">
<path fill-rule="evenodd" clip-rule="evenodd" d="M0 15.3125C0 11.6881 2.93813 8.75 6.5625 8.75H45.9375C49.5619 8.75 52.5 11.6881 52.5 15.3125V21.875H56.9598C58.9533 21.875 60.8388 22.7812 62.0842 24.3379L68.562 32.4351C69.4928 33.5987 70 35.0445 70 36.5347V45.9375C70 49.5619 67.0619 52.5 63.4375 52.5H61.25C61.25 57.3325 57.3325 61.25 52.5 61.25C47.6675 61.25 43.75 57.3325 43.75 52.5H21.875C21.875 57.3325 17.9575 61.25 13.125 61.25C8.29251 61.25 4.375 57.3325 4.375 52.5C4.375 52.3758 4.37759 52.2522 4.38271 52.1293C1.82982 51.2306 0 48.7977 0 45.9375V15.3125ZM5.66106 47.9312C7.19961 45.4231 9.96692 43.75 13.125 43.75C16.3637 43.75 19.1915 45.5096 20.7044 48.125H44.9206C45.689 46.7966 46.7966 45.689 48.125 44.9206V15.3125C48.125 14.1044 47.1456 13.125 45.9375 13.125H6.5625C5.35438 13.125 4.375 14.1044 4.375 15.3125V45.9375C4.375 46.8242 4.90262 47.5877 5.66106 47.9312ZM52.5 43.75C55.7387 43.75 58.5665 45.5096 60.0794 48.125H63.4375C64.6456 48.125 65.625 47.1456 65.625 45.9375V36.5347C65.625 36.0379 65.4559 35.556 65.1457 35.1681L58.6679 27.071C58.2528 26.5521 57.6243 26.25 56.9598 26.25H52.5V43.75ZM13.125 48.125C10.7088 48.125 8.75 50.0838 8.75 52.5C8.75 54.9162 10.7088 56.875 13.125 56.875C15.5412 56.875 17.5 54.9162 17.5 52.5C17.5 50.0838 15.5412 48.125 13.125 48.125ZM52.5 48.125C50.0838 48.125 48.125 50.0838 48.125 52.5C48.125 54.9162 50.0838 56.875 52.5 56.875C54.9162 56.875 56.875 54.9162 56.875 52.5C56.875 50.0838 54.9162 48.125 52.5 48.125Z" fill="#B98473"/>
</svg>
