<svg width="70" height="70" viewBox="0 0 70 70" fill="none" xmlns="http://www.w3.org/2000/svg">
<path fill-rule="evenodd" clip-rule="evenodd" d="M53.0959 1.42433C57.2378 0.388856 61.25 3.52152 61.25 7.79089V13.125H63.4375C67.0619 13.125 70 16.0631 70 19.6875V59.0625C70 62.6869 67.0619 65.625 63.4375 65.625H6.5625C2.93813 65.625 0 62.6869 0 59.0625V19.6875C0 16.1621 2.77982 13.286 6.26709 13.1315L53.0959 1.42433ZM24.3318 13.125H56.875V7.79089C56.875 6.36777 55.5376 5.32355 54.157 5.6687L24.3318 13.125ZM6.5625 17.5C5.35438 17.5 4.375 18.4794 4.375 19.6875V59.0625C4.375 60.2706 5.35438 61.25 6.5625 61.25H63.4375C64.6456 61.25 65.625 60.2706 65.625 59.0625V19.6875C65.625 18.4794 64.6456 17.5 63.4375 17.5H6.5625Z" fill="#B98473"/>
</svg>
